<svg xmlns="http://www.w3.org/2000/svg" width="118" height="41" viewBox="0 0 118 41" fill="none"><mask id="mask0_1879_309" style="mask-type:luminance" maskUnits="userSpaceOnUse" x="-5" y="-38" width="127" height="72"><path d="M121.663 -37.3517H-4.25024V33.4746H121.663V-37.3517Z" fill="white"></path></mask><g mask="url(#mask0_1879_309)"><path d="M28.7646 0.208618H24.2186V29.0592H28.7646V0.208618Z" fill="#EBEBE3"></path><mask id="mask1_1879_309" style="mask-type:luminance" maskUnits="userSpaceOnUse" x="-5" y="-38" width="127" height="72"><path d="M121.663 -37.3517H-4.25024V33.4746H121.663V-37.3517Z" fill="white"></path></mask><g mask="url(#mask1_1879_309)"><path d="M101.467 25.5481L104.572 23.3879C105.743 25.0536 107.498 25.8183 109.658 25.8183C111.953 25.8183 112.988 25.0529 112.988 23.7925C112.988 22.2625 111.593 22.0376 108.398 21.1372C105.607 20.3719 102.817 19.0668 102.817 15.3307C102.817 11.5946 105.832 9.74988 109.568 9.74988C112.584 9.74988 114.699 11.0103 116.139 12.5856L113.484 15.1963C112.584 14.1614 111.279 13.3509 109.568 13.3509C107.858 13.3509 106.912 13.9811 106.912 15.1058C106.912 16.5459 108.083 16.8614 111.053 17.626C114.024 18.3913 117.264 19.5619 117.264 23.5676C117.264 26.8085 115.284 29.4639 109.928 29.4639C105.607 29.4639 102.726 27.5732 101.466 25.5474" fill="#EBEBE3"></path><path d="M94.7118 17.9867C94.3065 15.4218 92.7306 13.5312 89.5808 13.5312C86.6553 13.5312 84.6302 15.1516 84.0898 17.9867H94.7124H94.7118ZM90.1205 29.4645C83.6393 29.4645 79.4533 25.2785 79.4533 19.6078C79.4533 13.9371 83.8642 9.75049 89.5349 9.75049C95.9709 9.75049 99.6165 14.5214 99.3017 21.1378H84.0885C84.6289 23.8836 86.4264 25.6385 89.8923 25.6385C92.0525 25.6385 93.6887 25.0608 94.9807 23.3878L98.0865 25.548C96.8261 27.5738 94.3478 29.4638 90.1199 29.4638" fill="#EBEBE3"></path><path d="M11.3178 0.208618H0.155396V29.0592H4.74599V19.9226H11.2273C16.1333 19.9226 20.5704 15.7366 20.5704 10.0207C20.5704 4.30474 16.1785 0.208618 11.3178 0.208618ZM9.91893 15.9163C6.69961 15.9163 4.09019 13.3069 4.09019 10.0876C4.09019 6.86826 6.69961 4.25883 9.91893 4.25883C13.1382 4.25883 15.7477 6.86826 15.7477 10.0876C15.7477 13.3069 13.1382 15.9163 9.91893 15.9163Z" fill="#EBEBE3"></path><path d="M52.9984 18.5946C52.4737 13.6256 48.131 9.74915 42.8519 9.74915C36.9215 9.74915 32.4135 14.1627 32.4135 19.6065C32.4135 25.0502 36.7418 29.4638 42.3751 29.4638C45.5374 29.4638 47.7631 27.9226 49.1075 25.6077L49.4702 29.0585H54.0988L52.999 18.5939L52.9984 18.5946ZM43.0053 25.4582C39.786 25.4582 37.1766 22.8487 37.1766 19.6294C37.1766 16.4101 39.786 13.8007 43.0053 13.8007C46.2246 13.8007 48.8341 16.4101 48.8341 19.6294C48.8341 22.8487 46.2246 25.4582 43.0053 25.4582Z" fill="#EBEBE3"></path><path d="M77.0223 29.0592H72.412L71.1876 17.4161C70.9542 15.2048 69.6944 13.9365 67.3119 13.9365C64.3417 13.9365 62.4065 15.7366 62.4065 18.7972V29.0592H57.8605V10.1558H62.4065L62.316 13.6663C63.4866 11.1906 65.8717 9.75049 68.7074 9.75049C72.5202 9.75049 75.2496 12.215 75.7061 16.5315L77.0223 29.0592Z" fill="#EBEBE3"></path></g></g><path d="M89.0646 32.6402H94.3177V34.1624H90.8952V35.6149H93.9098V37.1371H90.8952V38.6792H94.4569V40.2014H89.0646V32.6402ZM98.4038 32.6402H100.115L103.518 37.2565V32.6402H105.348V40.2014H103.627L100.224 35.595V40.2014H98.4038V32.6402ZM116.346 39.7239C115.922 39.9096 115.454 40.0555 114.943 40.1616C114.433 40.2611 113.915 40.3109 113.391 40.3109C112.529 40.3109 111.779 40.1583 111.143 39.8532C110.513 39.5415 110.025 39.1037 109.68 38.5399C109.335 37.9762 109.163 37.3063 109.163 36.5302C109.163 35.7211 109.345 35.018 109.71 34.4211C110.081 33.8241 110.599 33.3598 111.262 33.0282C111.925 32.6966 112.705 32.5307 113.6 32.5307C114.051 32.5307 114.509 32.5838 114.973 32.6899C115.437 32.7894 115.852 32.9287 116.217 33.1078L115.898 34.7096C115.136 34.3713 114.363 34.2022 113.58 34.2022C113.089 34.2022 112.662 34.295 112.297 34.4807C111.932 34.6665 111.65 34.9285 111.451 35.2667C111.252 35.5984 111.153 35.993 111.153 36.4506C111.153 37.1537 111.362 37.7009 111.779 38.0922C112.197 38.4769 112.781 38.6693 113.53 38.6693C113.703 38.6693 113.872 38.6593 114.038 38.6394C114.204 38.6129 114.373 38.5797 114.545 38.5399V37.3063H113.262V35.8438H116.346V39.7239Z" fill="#EBEBE3"></path></svg>